{
    "asset" : {
        "generator" : "Khronos glTF Blender I/O v1.3.48",
        "version" : "2.0"
    },
    "scene" : 0,
    "scenes" : [
        {
            "name" : "Scene",
            "nodes" : [
                0
            ]
        }
    ],
    "nodes" : [
        {
            "mesh" : 0,
            "name" : "asteroid_02"
        }
    ],
    "materials" : [
        {
            "emissiveFactor" : [
                0,
                0,
                0
            ],
            "name" : "asteroid 02",
            "normalTexture" : {
                "index" : 0,
                "texCoord" : 0
            },
            "pbrMetallicRoughness" : {
                "baseColorTexture" : {
                    "index" : 1,
                    "texCoord" : 0
                },
                "metallicFactor" : 0,
                "roughnessFactor" : 0.800000011920929
            }
        }
    ],
    "meshes" : [
        {
            "name" : "asteroid_02_LP.001",
            "primitives" : [
                {
                    "attributes" : {
                        "POSITION" : 0,
                        "NORMAL" : 1,
                        "TEXCOORD_0" : 2
                    },
                    "indices" : 3,
                    "material" : 0
                }
            ]
        }
    ],
    "textures" : [
        {
            "source" : 0
        },
        {
            "source" : 1
        }
    ],
    "images" : [
        {
            "mimeType" : "image/png",
            "name" : "asteroid2_normals",
            "uri" : "asteroid2_normals.png"
        },
        {
            "mimeType" : "image/jpeg",
            "name" : "asteroid_02_diff",
            "uri" : "asteroid_02_diff.jpg"
        }
    ],
    "accessors" : [
        {
            "bufferView" : 0,
            "componentType" : 5126,
            "count" : 2068,
            "max" : [
                0.8168805837631226,
                0.6532021760940552,
                0.5749787092208862
            ],
            "min" : [
                -1.183118462562561,
                -1.0262267589569092,
                -0.6955572366714478
            ],
            "type" : "VEC3"
        },
        {
            "bufferView" : 1,
            "componentType" : 5126,
            "count" : 2068,
            "type" : "VEC3"
        },
        {
            "bufferView" : 2,
            "componentType" : 5126,
            "count" : 2068,
            "type" : "VEC2"
        },
        {
            "bufferView" : 3,
            "componentType" : 5123,
            "count" : 11964,
            "type" : "SCALAR"
        }
    ],
    "bufferViews" : [
        {
            "buffer" : 0,
            "byteLength" : 24816,
            "byteOffset" : 0
        },
        {
            "buffer" : 0,
            "byteLength" : 24816,
            "byteOffset" : 24816
        },
        {
            "buffer" : 0,
            "byteLength" : 16544,
            "byteOffset" : 49632
        },
        {
            "buffer" : 0,
            "byteLength" : 23928,
            "byteOffset" : 66176
        }
    ],
    "buffers" : [
        {
            "byteLength" : 90104,
            "uri" : "generic_asteroid_2.bin"
        }
    ]
}
