{
    "asset" : {
        "generator" : "Khronos glTF Blender I/O v1.3.48",
        "version" : "2.0"
    },
    "scene" : 0,
    "scenes" : [
        {
            "name" : "Scene",
            "nodes" : [
                0
            ]
        }
    ],
    "nodes" : [
        {
            "mesh" : 0,
            "name" : "asteroid_03"
        }
    ],
    "materials" : [
        {
            "emissiveFactor" : [
                0,
                0,
                0
            ],
            "name" : "asteroid 03",
            "normalTexture" : {
                "index" : 0,
                "texCoord" : 0
            },
            "pbrMetallicRoughness" : {
                "baseColorTexture" : {
                    "index" : 1,
                    "texCoord" : 0
                },
                "metallicFactor" : 0,
                "roughnessFactor" : 0.800000011920929
            }
        }
    ],
    "meshes" : [
        {
            "name" : "asteroid_03_LP",
            "primitives" : [
                {
                    "attributes" : {
                        "POSITION" : 0,
                        "NORMAL" : 1,
                        "TEXCOORD_0" : 2
                    },
                    "indices" : 3,
                    "material" : 0
                }
            ]
        }
    ],
    "textures" : [
        {
            "source" : 0
        },
        {
            "source" : 1
        }
    ],
    "images" : [
        {
            "mimeType" : "image/png",
            "name" : "asteroid3_normals",
            "uri" : "asteroid3_normals.png"
        },
        {
            "mimeType" : "image/jpeg",
            "name" : "asteroid_03_diff",
            "uri" : "asteroid_03_diff.jpg"
        }
    ],
    "accessors" : [
        {
            "bufferView" : 0,
            "componentType" : 5126,
            "count" : 2088,
            "max" : [
                0.7381324172019958,
                0.96666419506073,
                0.8228462934494019
            ],
            "min" : [
                -0.7544747591018677,
                -1.0333342552185059,
                -0.6406983733177185
            ],
            "type" : "VEC3"
        },
        {
            "bufferView" : 1,
            "componentType" : 5126,
            "count" : 2088,
            "type" : "VEC3"
        },
        {
            "bufferView" : 2,
            "componentType" : 5126,
            "count" : 2088,
            "type" : "VEC2"
        },
        {
            "bufferView" : 3,
            "componentType" : 5123,
            "count" : 12126,
            "type" : "SCALAR"
        }
    ],
    "bufferViews" : [
        {
            "buffer" : 0,
            "byteLength" : 25056,
            "byteOffset" : 0
        },
        {
            "buffer" : 0,
            "byteLength" : 25056,
            "byteOffset" : 25056
        },
        {
            "buffer" : 0,
            "byteLength" : 16704,
            "byteOffset" : 50112
        },
        {
            "buffer" : 0,
            "byteLength" : 24252,
            "byteOffset" : 66816
        }
    ],
    "buffers" : [
        {
            "byteLength" : 91068,
            "uri" : "generic_asteroid_3.bin"
        }
    ]
}
